# xmcd CD database file
#
# Track frame offsets:
#	150
#	24051
#	46684
#	66924
#	88040
#	117631
#	126129
#
# Disc length: 2045 seconds
#
# Revision: 0
# Processed by: cddbd v1.5.2PL0 Copyright (c) Steve Scherf et al.
# Submitted via: CDex 1.70beta2
#
DISCID=5407fb07
DTITLE=BTA - Urban Desert
DYEAR=2007
DGENRE=Jazz
TTITLE0=Tuisa Greb \ Tred
TTITLE1=Bomba \ Uri B. Kinrot
TTITLE2=Goombolo
TTITLE3=KarmOn
TTITLE4=Lets Make A Party
TTITLE5=Chaser
TTITLE6=Tarras Ragga \ Tred
EXTD=YEAR: 2007
EXTT0=
EXTT1=
EXTT2=
EXTT3=
EXTT4=
EXTT5=
EXTT6=
PLAYORDER=
